HIERARCHY
ROOT Hips
{
	OFFSET 0.00000 0.00000 0.00000
	CHANNELS 6 Xposition Yposition Zposition Zrotation Yrotation Xrotation 
	JOINT LHipJoint
	{
		OFFSET 0 0 0
		CHANNELS 3 Zrotation Yrotation Xrotation
		JOINT LeftUpLeg
		{
			OFFSET 1.61024 -1.73873 0.75100
			CHANNELS 3 Zrotation Yrotation Xrotation
			JOINT LeftLeg
			{
				OFFSET 2.29819 -6.31424 0.00000
				CHANNELS 3 Zrotation Yrotation Xrotation
				JOINT LeftFoot
				{
					OFFSET 2.76618 -7.60002 0.00000
					CHANNELS 3 Zrotation Yrotation Xrotation
					JOINT LeftToeBase
					{
						OFFSET 0.16838 -0.46263 2.02361
						CHANNELS 3 Zrotation Yrotation Xrotation
						End Site
						{
							OFFSET 0.00000 -0.00000 1.04662
						}
					}
				}
			}
		}
	}
	JOINT RHipJoint
	{
		OFFSET 0 0 0
		CHANNELS 3 Zrotation Yrotation Xrotation
		JOINT RightUpLeg
		{
			OFFSET -1.46153 -1.73873 0.75100
			CHANNELS 3 Zrotation Yrotation Xrotation
			JOINT RightLeg
			{
				OFFSET -2.38373 -6.54924 0.00000
				CHANNELS 3 Zrotation Yrotation Xrotation
				JOINT RightFoot
				{
					OFFSET -2.80314 -7.70157 0.00000
					CHANNELS 3 Zrotation Yrotation Xrotation
					JOINT RightToeBase
					{
						OFFSET -0.16142 -0.44349 2.02101
						CHANNELS 3 Zrotation Yrotation Xrotation
						End Site
						{
							OFFSET -0.00000 -0.00000 1.04381
						}
					}
				}
			}
		}
	}
	JOINT LowerBack
	{
		OFFSET 0 0 0
		CHANNELS 3 Zrotation Yrotation Xrotation
		JOINT Spine
		{
			OFFSET -0.01629 1.66985 0.14750
			CHANNELS 3 Zrotation Yrotation Xrotation
			JOINT Spine1
			{
				OFFSET 0.02086 1.62378 0.20980
				CHANNELS 3 Zrotation Yrotation Xrotation
				JOINT Neck
				{
					OFFSET 0 0 0
					CHANNELS 3 Zrotation Yrotation Xrotation
					JOINT Neck1
					{
						OFFSET -0.05690 1.78719 0.08702
						CHANNELS 3 Zrotation Yrotation Xrotation
						JOINT Head
						{
							OFFSET 0.16035 1.73871 -0.38470
							CHANNELS 3 Zrotation Yrotation Xrotation
							End Site
							{
								OFFSET 0.05645 1.80914 -0.14081
							}
						}
					}
				}
				JOINT LeftShoulder
				{
					OFFSET 0 0 0
					CHANNELS 3 Zrotation Yrotation Xrotation
					JOINT LeftArm
					{
						OFFSET 2.83089 1.66494 -0.46008
						CHANNELS 3 Zrotation Yrotation Xrotation
						JOINT LeftForeArm
						{
							OFFSET 5.54893 -0.00000 -0.00000
							CHANNELS 3 Zrotation Yrotation Xrotation
							JOINT LeftHand
							{
								OFFSET 3.02898 -0.00000 -0.00000
								CHANNELS 3 Zrotation Yrotation Xrotation
								JOINT LeftFingerBase
								{
									OFFSET 0 0 0
									CHANNELS 3 Zrotation Yrotation Xrotation
									JOINT LeftHandIndex1
									{
										OFFSET 0.64095 -0.00000 -0.00000
										CHANNELS 3 Zrotation Yrotation Xrotation
										End Site
										{
											OFFSET 0.51675 -0.00000 -0.00000
										}
									}
								}
								JOINT LThumb
								{
									OFFSET 0 0 0
									CHANNELS 3 Zrotation Yrotation Xrotation
									End Site
									{
										OFFSET 0.52464 -0.00000 0.52464
									}
								}
							}
						}
					}
				}
				JOINT RightShoulder
				{
					OFFSET 0 0 0
					CHANNELS 3 Zrotation Yrotation Xrotation
					JOINT RightArm
					{
						OFFSET -2.84442 1.45761 -0.18088
						CHANNELS 3 Zrotation Yrotation Xrotation
						JOINT RightForeArm
						{
							OFFSET -5.35190 -0.00000 -0.00000
							CHANNELS 3 Zrotation Yrotation Xrotation
							JOINT RightHand
							{
								OFFSET -3.02531 -0.00000 -0.00000
								CHANNELS 3 Zrotation Yrotation Xrotation
								JOINT RightFingerBase
								{
									OFFSET 0 0 0
									CHANNELS 3 Zrotation Yrotation Xrotation
									JOINT RightHandIndex1
									{
										OFFSET -0.78389 -0.00000 -0.00000
										CHANNELS 3 Zrotation Yrotation Xrotation
										End Site
										{
											OFFSET -0.63199 -0.00000 -0.00000
										}
									}
								}
								JOINT RThumb
								{
									OFFSET 0 0 0
									CHANNELS 3 Zrotation Yrotation Xrotation
									End Site
									{
										OFFSET -0.64164 -0.00000 0.64164
									}
								}
							}
						}
					}
				}
			}
		}
	}
}
MOTION
Frames: 6
Frame Time: .0083333
-0.9432 17.6192 -1.0932 -177.1460 56.6451 -135.1290 0.0000 0.0000 0.0000 10.5605 -37.3799 -56.1810 1.2776 7.1632 20.1999 0.0469 0.8122 -4.4734 1.0984 -6.6597 -18.7109 0.0000 0.0000 0.0000 9.5526 12.8650 -40.8628 -0.7711 -5.6071 15.6485 1.5629 -28.7745 -31.5558 -0.2080 -2.9364 8.1017 -3.2125 2.4167 27.4808 -0.7580 2.2967 1.6146 0.0749 1.3026 -13.6256 0.6427 3.5899 -12.0250 -2.4045 5.5145 -11.7017 -0.7508 3.1872 -1.6073 0.0000 -0.0000 0.0000 -54.6384 -7.1959 53.0754 162.0690 -28.0687 -115.4833 -0.0000 0.0000 -56.8124 -34.0248 17.9398 -11.7475 -7.1250 0.0000 -0.0000 -51.1140 41.4170 6.6054 0.0000 -0.0000 0.0000 48.4045 8.1441 46.0817 -162.4176 27.6192 -115.6461 0.0000 -0.0000 -55.3128 31.4072 17.1138 10.1859 7.1250 -0.0000 -0.0000 35.4501 -11.1341 35.9657
-0.9398 17.6182 -1.0961 -177.2660 56.5706 -135.2410 0.0000 0.0000 0.0000 10.5204 -37.4326 -56.1570 1.2737 7.1529 20.1691 0.0464 0.7344 -4.4078 1.0983 -6.6593 -18.7098 0.0000 0.0000 0.0000 9.4746 12.9062 -40.7783 -0.7677 -5.5952 15.6142 1.5338 -28.7982 -31.8017 -0.2287 -3.0781 8.4962 -3.1071 2.3910 27.4944 -0.7600 2.2912 1.5698 0.0124 1.2927 -13.6817 0.7225 3.5898 -11.9691 -2.4730 5.4899 -11.5912 -0.7844 3.1659 -1.5765 0.0000 0.0000 0.0000 -56.1624 -7.1496 53.8992 162.0318 -28.1165 -115.4657 -0.0000 0.0000 -57.0237 -33.8569 17.9829 -11.7018 -7.1250 0.0000 -0.0000 -51.0603 41.4818 6.4661 0.0000 0.0000 0.0000 50.1287 7.9482 46.3073 -162.3436 27.7149 -115.6117 0.0000 -0.0000 -55.8085 32.1147 17.0853 10.4481 7.1250 -0.0000 -0.0000 35.7415 -10.9700 36.6279
-0.9343 17.6199 -1.0968 -177.2110 56.5720 -135.2170 0.0000 0.0000 0.0000 10.4414 -37.3730 -55.9680 1.2503 7.0891 19.9797 0.0437 0.7264 -4.2850 1.1629 -6.8460 -19.2599 0.0000 0.0000 0.0000 9.4562 13.0033 -40.8614 -0.7933 -5.6854 15.8744 1.4959 -28.7388 -31.9449 -0.2324 -3.1025 8.5643 -2.9222 2.3817 27.5604 -0.8434 2.3174 1.5132 -0.2041 1.2882 -13.7741 0.9757 3.6499 -11.9691 -2.6583 5.5294 -11.5391 -0.8811 3.1760 -1.5474 0.0000 0.0000 0.0000 -57.6052 -7.1837 54.6192 161.9488 -28.2227 -115.4266 -0.0000 0.0000 -57.2715 -33.6792 17.9486 -11.6048 -7.1250 0.0000 -0.0000 -50.9453 41.4864 6.4279 0.0000 0.0000 0.0000 52.1928 7.7916 46.7207 -162.2408 27.8478 -115.5638 0.0000 -0.0000 -55.8827 32.7222 17.0451 10.6663 7.1250 -0.0000 -0.0000 35.9901 -10.8343 37.1994
-0.9454 17.6046 -1.1039 -178.5350 55.8333 -135.8370 0.0000 0.0000 0.0000 10.4886 -37.8618 -56.9155 1.2458 7.0769 19.9434 0.0410 0.1414 -3.8780 1.1949 -6.9361 -19.5261 0.0000 0.0000 0.0000 8.9500 12.5190 -41.3838 -0.7960 -5.6947 15.9010 1.4861 -29.0124 -32.5290 -0.2554 -3.2519 8.9807 -2.4536 1.8988 26.9500 -0.7882 1.8545 1.4359 -0.2130 1.0523 -13.5095 1.0170 3.7498 -12.0091 -2.9897 5.6429 -11.5784 -0.9885 3.2374 -1.5411 -0.0000 -0.0000 0.0000 -59.3342 -7.2516 55.2868 161.8256 -28.3799 -115.3682 -0.0000 0.0000 -57.3955 -33.4104 17.8201 -11.4129 -7.1250 0.0000 -0.0000 -50.7159 41.4322 6.4733 -0.0000 -0.0000 0.0000 53.9136 7.8440 46.9577 -162.1710 27.9376 -115.5312 0.0000 -0.0000 -55.9058 33.0501 16.9139 10.7190 7.1250 -0.0000 -0.0000 36.1454 -10.8567 37.4551
-0.9421 17.6056 -1.1043 -178.6330 55.7559 -135.9720 0.0000 0.0000 0.0000 10.3741 -37.8951 -56.6389 1.2053 6.9653 19.6126 0.0378 0.1309 -3.7201 1.1600 -6.8378 -19.2357 0.0000 0.0000 0.0000 8.8504 12.5814 -41.7707 -0.8790 -5.9770 16.7178 1.3658 -28.8218 -32.9557 -0.2500 -3.2174 8.8845 -2.1269 1.7456 27.2076 -0.9476 1.7188 1.3197 -0.5438 0.9626 -13.7692 1.0909 3.8212 -12.1177 -2.8895 5.7334 -11.4307 -0.9604 3.2749 -1.4758 -0.0000 -0.0000 0.0000 -60.6001 -7.1543 55.7877 161.7266 -28.5058 -115.3210 -0.0000 0.0000 -57.6070 -33.0868 17.7529 -11.2366 -7.1250 0.0000 -0.0000 -50.5007 41.4363 6.4111 -0.0000 -0.0000 0.0000 56.0627 7.7654 47.4203 -162.0620 28.0778 -115.4800 0.0000 -0.0000 -55.7852 33.3578 17.1202 10.9677 7.1250 -0.0000 -0.0000 36.2205 -10.5772 37.8690
-0.9210 17.6235 -1.0940 -177.2260 56.5426 -135.4550 0.0000 0.0000 0.0000 10.1251 -37.3266 -55.3803 1.2070 6.9700 19.6266 0.0411 0.6740 -4.1404 1.1424 -6.7874 -19.0870 0.0000 0.0000 0.0000 9.4347 13.1205 -41.0719 -0.8835 -5.9917 16.7605 1.4378 -28.6830 -32.2284 -0.2039 -2.9077 8.0220 -2.7400 2.2886 28.0328 -0.8540 2.2285 1.3905 -0.3079 1.2350 -14.1662 1.0379 3.8343 -12.1766 -2.8781 5.7573 -11.3915 -0.9451 3.2879 -1.4552 0.0000 -0.0000 0.0000 -62.0725 -7.2379 56.1203 161.5560 -28.7220 -115.2393 -0.0000 0.0000 -57.7262 -33.0710 17.4095 -11.0248 -7.1250 0.0000 -0.0000 -50.2520 41.1652 6.8570 0.0000 -0.0000 0.0000 57.8295 7.8303 47.8048 -161.9617 28.2063 -115.4327 0.0000 -0.0000 -55.8509 33.3488 17.2389 11.0360 7.1250 -0.0000 -0.0000 36.1922 -10.4727 37.9211
